<svg width="167" height="48" viewBox="0 0 167 48" fill="none" xmlns="http://www.w3.org/2000/svg">
<path d="M22.6999 10.4375C24.4583 7.83025 22.9858 4.82289 21.6121 3.10769C21.2577 2.66531 21.2596 2.0098 21.7218 1.6818C24.453 -0.25626 30.0691 -1.74182 35.9638 4.47324C41.736 10.5591 40.654 16.1706 38.9756 18.9822C38.6546 19.5201 37.9159 19.5118 37.4916 19.051C35.2543 16.6221 31.1851 13.4055 28.0411 14.9775C24.6857 16.6552 22.8586 16.1986 22.2617 15.6935C22.1938 15.6361 22.127 15.5781 22.0585 15.5214C21.403 14.9797 20.742 13.3407 22.6999 10.4375Z" fill="#FFB3BA"/>
<path d="M17.8038 7.76695C16.5932 6.69872 14.2134 8.21204 13.1748 9.10224C5.51919 17.0249 7.65565 22.099 11.4835 27.5292C14.5457 31.8733 11.9286 35.4519 10.2372 36.6982L2.77667 42.472C1.98062 43.0881 2.48722 44.3146 3.47965 44.1462C20.7954 41.2083 29.2644 30.9301 31.9579 28.4194C40.0992 20.8305 34.4504 24.6583 30.2665 20.8305C26.0826 17.0027 20.3854 22.2771 17.8038 19.1614C15.2223 16.0457 19.3172 9.10224 17.8038 7.76695Z" fill="#FFF3E0"/>
<path d="M67.9309 4.73828V11.6055H64.0754C64.0754 11.082 64.0598 10.6289 64.0286 10.2461C64.0051 9.85547 63.9465 9.54297 63.8528 9.30859C63.759 9.06641 63.6145 8.89062 63.4192 8.78125C63.2317 8.66406 62.9778 8.60547 62.6575 8.60547H61.9309V16.3398C61.9309 16.8477 62.0793 17.1953 62.3762 17.3828C62.6731 17.5625 63.1653 17.6523 63.8528 17.6523V22H53.1067V17.6523C53.7942 17.6523 54.2825 17.5625 54.5715 17.3828C54.8684 17.1953 55.0168 16.8477 55.0168 16.3398V8.60547H54.302C53.9817 8.60547 53.7239 8.66406 53.5286 8.78125C53.3411 8.89062 53.1965 9.06641 53.095 9.30859C53.0012 9.54297 52.9426 9.85547 52.9192 10.2461C52.8958 10.6289 52.884 11.082 52.884 11.6055H49.0168V4.73828H67.9309ZM68.6692 22V17.6523C69.3567 17.6523 69.8489 17.5625 70.1458 17.3828C70.4426 17.1953 70.5911 16.8477 70.5911 16.3398V10.4102C70.5911 9.89453 70.4426 9.54688 70.1458 9.36719C69.8489 9.17969 69.3567 9.08594 68.6692 9.08594V4.73828H81.0793C82.2278 4.73828 83.1926 4.85156 83.9739 5.07812C84.7629 5.30469 85.3918 5.62891 85.8606 6.05078C86.3372 6.47266 86.6731 6.97656 86.8684 7.5625C87.0715 8.14844 87.1731 8.80078 87.1731 9.51953C87.1731 10.832 86.8567 11.8828 86.2239 12.6719C85.5911 13.4531 84.5793 13.875 83.1887 13.9375V14.0781C83.8606 14.125 84.4153 14.25 84.8528 14.4531C85.2981 14.6562 85.6458 14.9219 85.8958 15.25C86.1536 15.5703 86.3333 15.9609 86.4348 16.4219C86.5442 16.875 86.5989 17.3906 86.5989 17.9688V18.5898C86.5989 18.7852 86.6497 18.957 86.7512 19.1055C86.8528 19.2461 87.009 19.3164 87.22 19.3164C87.4465 19.3164 87.6067 19.2461 87.7004 19.1055C87.7942 18.957 87.8411 18.7852 87.8411 18.5898V15.6133H89.1887V18.5898C89.1887 19.1523 89.1028 19.6719 88.9309 20.1484C88.7668 20.6172 88.4934 21.0273 88.1106 21.3789C87.7278 21.7305 87.2239 22 86.5989 22.1875C85.9739 22.3828 85.2043 22.4805 84.2903 22.4805C83.3762 22.4805 82.6262 22.3789 82.0403 22.1758C81.4622 21.9805 81.009 21.707 80.6809 21.3555C80.3528 21.0039 80.1223 20.5977 79.9895 20.1367C79.8645 19.668 79.802 19.1758 79.802 18.6602V17.7578C79.802 17.1328 79.7668 16.6289 79.6965 16.2461C79.6262 15.8555 79.509 15.5547 79.345 15.3438C79.1887 15.125 78.9817 14.9805 78.7239 14.9102C78.4661 14.8398 78.1536 14.8047 77.7864 14.8047H77.5051V16.4805C77.5051 16.8945 77.6184 17.1953 77.845 17.3828C78.0793 17.5625 78.4934 17.6523 79.0872 17.6523V22H68.6692ZM77.5051 12.7305H78.5364C79.1926 12.7305 79.6418 12.5742 79.884 12.2617C80.134 11.9414 80.259 11.5 80.259 10.9375C80.259 10.2812 80.134 9.80859 79.884 9.51953C79.6418 9.23047 79.1926 9.08594 78.5364 9.08594H77.5051V12.7305ZM89.6692 22V17.6523C90.3567 17.6523 90.8489 17.5625 91.1458 17.3828C91.4426 17.1953 91.5911 16.8477 91.5911 16.3398V10.4102C91.5911 9.89453 91.4426 9.54688 91.1458 9.36719C90.8489 9.17969 90.3567 9.08594 89.6692 9.08594V4.73828H100.415V9.08594C99.7278 9.08594 99.2356 9.17969 98.9387 9.36719C98.6497 9.54688 98.5051 9.89453 98.5051 10.4102V16.3398C98.5051 16.8477 98.6497 17.1953 98.9387 17.3828C99.2356 17.5625 99.7278 17.6523 100.415 17.6523V22H89.6692ZM110.224 15.6367V16.3398C110.224 16.7539 110.325 17.0781 110.529 17.3125C110.74 17.5391 111.118 17.6523 111.665 17.6523H112.861V22H101.388V17.6523C102.075 17.6523 102.568 17.5625 102.865 17.3828C103.161 17.1953 103.31 16.8477 103.31 16.3398V10.4102C103.31 9.89453 103.161 9.54688 102.865 9.36719C102.568 9.17969 102.075 9.08594 101.388 9.08594V4.73828H114.032C115.189 4.73828 116.157 4.875 116.939 5.14844C117.72 5.42187 118.345 5.80469 118.814 6.29688C119.29 6.78125 119.626 7.37109 119.822 8.06641C120.025 8.76172 120.126 9.52734 120.126 10.3633C120.126 11.207 120.025 11.9531 119.822 12.6016C119.626 13.25 119.29 13.8047 118.814 14.2656C118.345 14.7188 117.72 15.0625 116.939 15.2969C116.157 15.5234 115.189 15.6367 114.032 15.6367H110.224ZM110.224 12.8594H111.49C112.146 12.8594 112.599 12.6875 112.849 12.3438C113.099 12 113.224 11.5469 113.224 10.9844C113.224 10.4531 113.099 10.0039 112.849 9.63672C112.599 9.26953 112.146 9.08594 111.49 9.08594H110.224V12.8594ZM131.611 9.08594C130.923 9.08594 130.431 9.17969 130.134 9.36719C129.845 9.54688 129.7 9.89453 129.7 10.4102V17.6523H132.044C132.365 17.6523 132.634 17.6211 132.853 17.5586C133.072 17.4961 133.243 17.3672 133.368 17.1719C133.493 16.9688 133.579 16.6875 133.626 16.3281C133.681 15.9688 133.708 15.4922 133.708 14.8984H137.81V22H120.865V17.6523C121.552 17.6523 122.044 17.5625 122.341 17.3828C122.638 17.1953 122.786 16.8477 122.786 16.3398V10.4102C122.786 9.89453 122.638 9.54688 122.341 9.36719C122.044 9.17969 121.552 9.08594 120.865 9.08594V4.73828H131.611V9.08594ZM149.716 17.6523C150.036 17.6523 150.302 17.625 150.513 17.5703C150.732 17.5156 150.904 17.4141 151.029 17.2656C151.161 17.1094 151.251 16.8984 151.298 16.6328C151.345 16.3672 151.368 16.0273 151.368 15.6133H155.47V22H138.771V17.6523C139.458 17.6523 139.95 17.5625 140.247 17.3828C140.544 17.1953 140.693 16.8477 140.693 16.3398V10.4102C140.693 9.89453 140.544 9.54688 140.247 9.36719C139.95 9.17969 139.458 9.08594 138.771 9.08594V4.73828H155.47V11.125H151.368C151.368 10.7109 151.345 10.3711 151.298 10.1055C151.251 9.83984 151.161 9.63281 151.029 9.48438C150.904 9.33594 150.732 9.23438 150.513 9.17969C150.302 9.11719 150.036 9.08594 149.716 9.08594H147.607V12.2031H151.345V14.2773H147.607V17.6523H149.716Z" fill="white"/>
<path d="M58.1458 24.2695C58.6692 24.2695 59.1575 24.3125 59.6106 24.3984C60.0715 24.4844 60.4895 24.5977 60.8645 24.7383C61.2395 24.8711 61.5637 25.0156 61.8372 25.1719C62.1106 25.3203 62.3333 25.457 62.5051 25.582V24.7383H66.3723V31.125H62.2708C62.2708 30.6016 62.2043 30.1641 62.0715 29.8125C61.9465 29.4609 61.7747 29.1758 61.5559 28.957C61.345 28.7383 61.095 28.582 60.8059 28.4883C60.5168 28.3945 60.2043 28.3477 59.8684 28.3477C59.4075 28.3477 59.0129 28.4375 58.6848 28.6172C58.3567 28.7891 58.0872 29.0703 57.8762 29.4609C57.6731 29.8516 57.5168 30.3711 57.4075 31.0195C57.3059 31.668 57.2551 32.457 57.2551 33.3867C57.2551 34.332 57.3098 35.125 57.4192 35.7656C57.5364 36.3984 57.7083 36.9141 57.9348 37.3125C58.1692 37.7031 58.4661 37.9883 58.8254 38.168C59.1848 38.3398 59.6145 38.4258 60.1145 38.4258C60.4504 38.4258 60.7747 38.3633 61.0872 38.2383C61.3997 38.1055 61.6731 37.9062 61.9075 37.6406C62.1497 37.375 62.3372 37.043 62.47 36.6445C62.6106 36.2461 62.6809 35.7656 62.6809 35.2031H66.759C66.759 36.1953 66.6028 37.1328 66.2903 38.0156C65.9778 38.8984 65.4895 39.6719 64.8254 40.3359C64.1614 41 63.3176 41.5273 62.2942 41.918C61.2708 42.3086 60.0559 42.5039 58.6497 42.5039C57.384 42.5039 56.1848 42.332 55.052 41.9883C53.927 41.6445 52.9426 41.1055 52.0989 40.3711C51.2629 39.6367 50.5989 38.6953 50.1067 37.5469C49.6223 36.3906 49.3801 35.0039 49.3801 33.3867C49.3801 31.7695 49.6262 30.3867 50.1184 29.2383C50.6184 28.082 51.2747 27.1367 52.0872 26.4023C52.9075 25.668 53.8411 25.1289 54.8879 24.7852C55.9348 24.4414 57.0208 24.2695 58.1458 24.2695ZM68.3176 33.3867C68.3176 31.8789 68.5637 30.5586 69.0559 29.4258C69.5559 28.2852 70.259 27.332 71.1653 26.5664C72.0715 25.8008 73.1458 25.2266 74.3879 24.8438C75.6379 24.4609 77.0168 24.2695 78.5247 24.2695C80.0247 24.2695 81.3997 24.4609 82.6497 24.8438C83.8997 25.2266 84.9739 25.8008 85.8723 26.5664C86.7786 27.332 87.4778 28.2852 87.97 29.4258C88.47 30.5586 88.72 31.8789 88.72 33.3867C88.72 34.8867 88.47 36.207 87.97 37.3477C87.4778 38.4805 86.7786 39.4336 85.8723 40.207C84.9739 40.9727 83.8997 41.5469 82.6497 41.9297C81.3997 42.3125 80.0247 42.5039 78.5247 42.5039C77.0168 42.5039 75.6379 42.3125 74.3879 41.9297C73.1458 41.5469 72.0715 40.9727 71.1653 40.207C70.259 39.4336 69.5559 38.4805 69.0559 37.3477C68.5637 36.207 68.3176 34.8867 68.3176 33.3867ZM76.1926 33.3867C76.1926 34.332 76.2278 35.125 76.2981 35.7656C76.3684 36.3984 76.4895 36.9141 76.6614 37.3125C76.8411 37.7031 77.0793 37.9883 77.3762 38.168C77.6731 38.3398 78.0559 38.4258 78.5247 38.4258C78.97 38.4258 79.345 38.3398 79.6497 38.168C79.9543 37.9883 80.1926 37.7031 80.3645 37.3125C80.5442 36.9141 80.6692 36.3984 80.7395 35.7656C80.8098 35.125 80.845 34.332 80.845 33.3867C80.845 32.457 80.8098 31.668 80.7395 31.0195C80.6692 30.3711 80.5442 29.8516 80.3645 29.4609C80.1926 29.0703 79.9543 28.7891 79.6497 28.6172C79.345 28.4375 78.97 28.3477 78.5247 28.3477C78.0559 28.3477 77.6731 28.4375 77.3762 28.6172C77.0793 28.7891 76.8411 29.0703 76.6614 29.4609C76.4895 29.8516 76.3684 30.3711 76.2981 31.0195C76.2278 31.668 76.1926 32.457 76.1926 33.3867ZM100.556 29.0859C99.8684 29.0859 99.3762 29.1797 99.0793 29.3672C98.7903 29.5469 98.6458 29.8945 98.6458 30.4102V37.6523H100.99C101.31 37.6523 101.579 37.6211 101.798 37.5586C102.017 37.4961 102.189 37.3672 102.314 37.1719C102.439 36.9688 102.525 36.6875 102.572 36.3281C102.626 35.9688 102.654 35.4922 102.654 34.8984H106.755V42H89.8098V37.6523C90.4973 37.6523 90.9895 37.5625 91.2864 37.3828C91.5833 37.1953 91.7317 36.8477 91.7317 36.3398V30.4102C91.7317 29.8945 91.5833 29.5469 91.2864 29.3672C90.9895 29.1797 90.4973 29.0859 89.8098 29.0859V24.7383H100.556V29.0859ZM107.833 33.3867C107.833 31.8789 108.079 30.5586 108.572 29.4258C109.072 28.2852 109.775 27.332 110.681 26.5664C111.587 25.8008 112.661 25.2266 113.904 24.8438C115.154 24.4609 116.532 24.2695 118.04 24.2695C119.54 24.2695 120.915 24.4609 122.165 24.8438C123.415 25.2266 124.49 25.8008 125.388 26.5664C126.294 27.332 126.993 28.2852 127.486 29.4258C127.986 30.5586 128.236 31.8789 128.236 33.3867C128.236 34.8867 127.986 36.207 127.486 37.3477C126.993 38.4805 126.294 39.4336 125.388 40.207C124.49 40.9727 123.415 41.5469 122.165 41.9297C120.915 42.3125 119.54 42.5039 118.04 42.5039C116.532 42.5039 115.154 42.3125 113.904 41.9297C112.661 41.5469 111.587 40.9727 110.681 40.207C109.775 39.4336 109.072 38.4805 108.572 37.3477C108.079 36.207 107.833 34.8867 107.833 33.3867ZM115.708 33.3867C115.708 34.332 115.743 35.125 115.814 35.7656C115.884 36.3984 116.005 36.9141 116.177 37.3125C116.357 37.7031 116.595 37.9883 116.892 38.168C117.189 38.3398 117.572 38.4258 118.04 38.4258C118.486 38.4258 118.861 38.3398 119.165 38.168C119.47 37.9883 119.708 37.7031 119.88 37.3125C120.06 36.9141 120.185 36.3984 120.255 35.7656C120.325 35.125 120.361 34.332 120.361 33.3867C120.361 32.457 120.325 31.668 120.255 31.0195C120.185 30.3711 120.06 29.8516 119.88 29.4609C119.708 29.0703 119.47 28.7891 119.165 28.6172C118.861 28.4375 118.486 28.3477 118.04 28.3477C117.572 28.3477 117.189 28.4375 116.892 28.6172C116.595 28.7891 116.357 29.0703 116.177 29.4609C116.005 29.8516 115.884 30.3711 115.814 31.0195C115.743 31.668 115.708 32.457 115.708 33.3867ZM129.325 42V37.6523C130.013 37.6523 130.505 37.5625 130.802 37.3828C131.099 37.1953 131.247 36.8477 131.247 36.3398V30.4102C131.247 29.8945 131.099 29.5469 130.802 29.3672C130.505 29.1797 130.013 29.0859 129.325 29.0859V24.7383H141.736C142.884 24.7383 143.849 24.8516 144.63 25.0781C145.419 25.3047 146.048 25.6289 146.517 26.0508C146.993 26.4727 147.329 26.9766 147.525 27.5625C147.728 28.1484 147.829 28.8008 147.829 29.5195C147.829 30.832 147.513 31.8828 146.88 32.6719C146.247 33.4531 145.236 33.875 143.845 33.9375V34.0781C144.517 34.125 145.072 34.25 145.509 34.4531C145.954 34.6562 146.302 34.9219 146.552 35.25C146.81 35.5703 146.99 35.9609 147.091 36.4219C147.2 36.875 147.255 37.3906 147.255 37.9688V38.5898C147.255 38.7852 147.306 38.957 147.407 39.1055C147.509 39.2461 147.665 39.3164 147.876 39.3164C148.103 39.3164 148.263 39.2461 148.357 39.1055C148.45 38.957 148.497 38.7852 148.497 38.5898V35.6133H149.845V38.5898C149.845 39.1523 149.759 39.6719 149.587 40.1484C149.423 40.6172 149.15 41.0273 148.767 41.3789C148.384 41.7305 147.88 42 147.255 42.1875C146.63 42.3828 145.861 42.4805 144.947 42.4805C144.032 42.4805 143.282 42.3789 142.697 42.1758C142.118 41.9805 141.665 41.707 141.337 41.3555C141.009 41.0039 140.779 40.5977 140.646 40.1367C140.521 39.668 140.458 39.1758 140.458 38.6602V37.7578C140.458 37.1328 140.423 36.6289 140.353 36.2461C140.282 35.8555 140.165 35.5547 140.001 35.3438C139.845 35.125 139.638 34.9805 139.38 34.9102C139.122 34.8398 138.81 34.8047 138.443 34.8047H138.161V36.4805C138.161 36.8945 138.275 37.1953 138.501 37.3828C138.736 37.5625 139.15 37.6523 139.743 37.6523V42H129.325ZM138.161 32.7305H139.193C139.849 32.7305 140.298 32.5742 140.54 32.2617C140.79 31.9414 140.915 31.5 140.915 30.9375C140.915 30.2812 140.79 29.8086 140.54 29.5195C140.298 29.2305 139.849 29.0859 139.193 29.0859H138.161V32.7305Z" fill="#FFB3BA"/>
</svg>
